<svg width="29" height="28" viewBox="0 0 29 28" fill="none" xmlns="http://www.w3.org/2000/svg">



<g clip-path="url(#clip0_25_2142)">
<path d="M19.2305 8.61055L19.5613 8.9414C19.8184 9.19844 19.8184 9.61406 19.5613 9.86836L18.7656 10.6668L17.5051 9.40625L18.3008 8.61055C18.5578 8.35351 18.9734 8.35351 19.2277 8.61055H19.2305ZM12.9086 14.0055L16.5781 10.3332L17.8387 11.5937L14.1664 15.2633C14.0871 15.3426 13.9887 15.4 13.882 15.4301L12.2824 15.8867L12.7391 14.2871C12.7691 14.1805 12.8266 14.082 12.9059 14.0027L12.9086 14.0055ZM17.3738 7.68359L11.9789 13.0758C11.741 13.3137 11.5687 13.6062 11.4785 13.9262L10.6965 16.6605C10.6309 16.8902 10.6937 17.1363 10.8633 17.3059C11.0328 17.4754 11.2789 17.5383 11.5086 17.4727L14.243 16.6906C14.5656 16.5977 14.8582 16.4254 15.0934 16.1902L20.4883 10.798C21.2566 10.0297 21.2566 8.78281 20.4883 8.01445L20.1574 7.68359C19.3891 6.91523 18.1422 6.91523 17.3738 7.68359ZM9.57812 8.75C8.24922 8.75 7.17188 9.82734 7.17188 11.1562V18.5937C7.17188 19.9227 8.24922 21 9.57812 21H17.0156C18.3445 21 19.4219 19.9227 19.4219 18.5937V15.5312C19.4219 15.1676 19.1293 14.875 18.7656 14.875C18.402 14.875 18.1094 15.1676 18.1094 15.5312V18.5937C18.1094 19.198 17.6199 19.6875 17.0156 19.6875H9.57812C8.97383 19.6875 8.48438 19.198 8.48438 18.5937V11.1562C8.48438 10.552 8.97383 10.0625 9.57812 10.0625H12.6406C13.0043 10.0625 13.2969 9.76992 13.2969 9.40625C13.2969 9.04258 13.0043 8.75 12.6406 8.75H9.57812Z" fill="#4D8CFB"/>
</g>
<defs>
<clipPath id="clip0_25_2142">
<path d="M7.17188 7H21.1719V21H7.17188V7Z" fill="white"/>
</clipPath>
</defs>
</svg>
